<svg viewBox="0 0 200 200" xmlns="http://www.w3.org/2000/svg">
  <!-- Main circular background -->
  <circle cx="100" cy="100" r="95" fill="#1fb5a6" stroke="#1fb5a6" stroke-width="3"/>
  
  <!-- Leaf shape on left -->
  <path d="M 50 100 Q 30 70 50 50 Q 70 30 90 50 Q 80 70 70 85 Q 60 95 50 100" fill="white"/>
  
  <!-- Human figure in center -->
  <circle cx="100" cy="70" r="12" fill="#1fb5a6"/>
  <path d="M 88 85 Q 88 90 92 95 L 92 130 Q 92 135 100 135 Q 108 135 108 130 L 108 95 Q 112 90 112 85 Q 110 80 100 80 Q 90 80 88 85" fill="#1fb5a6"/>
  
  <!-- Curved element on right -->
  <path d="M 120 60 Q 140 50 160 60 Q 170 80 160 100 Q 140 110 120 100 Q 130 80 120 60" fill="#0b7ec8"/>
  
  <!-- Bottom curved element -->
  <path d="M 70 140 Q 100 150 130 140 Q 140 150 130 160 Q 100 170 70 160 Q 60 150 70 140" fill="#0b7ec8"/>
</svg>